# xmcd CD database file
#
# Track frame offsets:
#	150
#	34364
#	61233
#	82336
#	114727
#	139334
#	165519
#	194951
#	224764
#	247091
#
# Disc length: 3680 seconds
#
# Revision: 0
# Processed by: cddbd v1.5.2PL0 Copyright (c) Steve Scherf et al.
# Submitted via: CDex 1.70beta2
#
DISCID=a80e5e0a
DTITLE=John Stein, Larry Goldings, Bill Thompson, Keala Kaumeheiwa, Greg Conroy - John Stein - Portraits and Landscapes
DYEAR=2000
DGENRE=Jazz
TTITLE0=Samba Nights
TTITLE1=Moonlight in vermont
TTITLE2=Be ooo Ba
TTITLE3=Sarlat
TTITLE4=Mister Dave
TTITLE5=Medelyn
TTITLE6=Sammy
TTITLE7=Rio con brio
TTITLE8=Ben J Man
TTITLE9=Switch-A-Roo
EXTD=YEAR: 2000
EXTT0=
EXTT1=
EXTT2=
EXTT3=
EXTT4=
EXTT5=
EXTT6=
EXTT7=
EXTT8=
EXTT9=
PLAYORDER=
